<svg xmlns="http://www.w3.org/2000/svg" xmlns:xlink="http://www.w3.org/1999/xlink" width="30" height="30" viewBox="0 0 30 30">
  <defs>
    <clipPath id="clip-path">
      <rect id="Rectangle_32" data-name="Rectangle 32" width="30" height="30" transform="translate(1202 92)" fill="#8d9700"/>
    </clipPath>
  </defs>
  <g id="Mask_Group_16" data-name="Mask Group 16" transform="translate(-1202 -92)" clip-path="url(#clip-path)">
    <path id="email" d="M27.187,3.75H2.813A2.816,2.816,0,0,0,0,6.563V23.437A2.816,2.816,0,0,0,2.813,26.25H27.187A2.816,2.816,0,0,0,30,23.437V6.563A2.816,2.816,0,0,0,27.187,3.75Zm0,1.875a.932.932,0,0,1,.359.073L15,16.572,2.453,5.7a.933.933,0,0,1,.359-.073Zm0,18.75H2.813a.938.938,0,0,1-.938-.938V7.679L14.386,18.521a.939.939,0,0,0,1.229,0L28.125,7.679V23.437A.938.938,0,0,1,27.187,24.375Z" transform="translate(1202 92)" fill="#8d9700"/>
  </g>
</svg>
