<svg xmlns="http://www.w3.org/2000/svg" xmlns:xlink="http://www.w3.org/1999/xlink" width="90" height="90" viewBox="0 0 90 90">
  <defs>
    <clipPath id="clip-path">
      <path id="Path_28" data-name="Path 28" d="M0,0H90V90H0V0Z" transform="translate(292 2433)" fill="#f7ef8a" stroke="#707070" stroke-width="1"/>
    </clipPath>
  </defs>
  <g id="Mask_Group_19" data-name="Mask Group 19" transform="translate(-292 -2433)" clip-path="url(#clip-path)">
    <g id="_001-water" data-name="001-water" transform="translate(292 2433)">
      <path id="Path_29" data-name="Path 29" d="M88.719,71.478A6.016,6.016,0,0,1,84.4,69.448a1.318,1.318,0,0,0-1.978,0,5.993,5.993,0,0,1-9,0,1.318,1.318,0,0,0-1.978,0,5.993,5.993,0,0,1-9,0,1.318,1.318,0,0,0-1.978,0,5.992,5.992,0,0,1-9,0,1.318,1.318,0,0,0-1.978,0,5.993,5.993,0,0,1-9,0,1.318,1.318,0,0,0-1.978,0,5.993,5.993,0,0,1-9,0,1.318,1.318,0,0,0-1.977,0,5.992,5.992,0,0,1-9,0,1.318,1.318,0,0,0-1.978,0,5.992,5.992,0,0,1-9,0,1.318,1.318,0,0,0-1.978,0A6.016,6.016,0,0,1,1.28,71.478,1.318,1.318,0,0,0,0,72.8V88.682A1.318,1.318,0,0,0,1.318,90H88.681A1.318,1.318,0,0,0,90,88.682V72.8a1.318,1.318,0,0,0-1.28-1.318ZM87.363,87.363H2.637V73.98a8.682,8.682,0,0,0,3.955-1.833,8.625,8.625,0,0,0,10.974,0,8.625,8.625,0,0,0,10.974,0,8.625,8.625,0,0,0,10.974,0,8.625,8.625,0,0,0,10.974,0,8.625,8.625,0,0,0,10.974,0,8.625,8.625,0,0,0,10.974,0,8.626,8.626,0,0,0,10.974,0,8.684,8.684,0,0,0,3.955,1.833Z" fill="#f7ef8a"/>
      <path id="Path_30" data-name="Path 30" d="M45,49.5A34.494,34.494,0,0,0,79.453,15.043a1.318,1.318,0,0,0-1.318-1.318,34.515,34.515,0,0,0-7.291.781A34.64,34.64,0,0,0,69.7,7.255a1.319,1.319,0,0,0-1.615-.932,34.43,34.43,0,0,0-12.88,6.6A17.225,17.225,0,0,1,61.865,2.38,1.318,1.318,0,1,0,60.3.257a19.859,19.859,0,0,0-7.267,10.456A34.277,34.277,0,0,0,45.932.386a1.318,1.318,0,0,0-1.864,0,34.279,34.279,0,0,0-7.1,10.327A19.857,19.857,0,0,0,29.7.257,1.318,1.318,0,1,0,28.134,2.38a17.223,17.223,0,0,1,6.657,10.546,34.423,34.423,0,0,0-12.88-6.6,1.319,1.319,0,0,0-1.615.932,34.52,34.52,0,0,0-1.138,7.251,34.51,34.51,0,0,0-7.293-.782,1.318,1.318,0,0,0-1.318,1.318A34.492,34.492,0,0,0,45,49.5ZM70.872,17.2a31.8,31.8,0,0,1,5.916-.809A31.88,31.88,0,0,1,54.841,45.3,34.657,34.657,0,0,0,70.872,17.2ZM49.22,45.3a34.523,34.523,0,0,0,5.816-28.7A31.75,31.75,0,0,1,67.478,9.246,31.871,31.871,0,0,1,49.22,45.3ZM45,3.222a31.862,31.862,0,0,1,0,43.052A31.862,31.862,0,0,1,45,3.222ZM19.136,17.2a34.382,34.382,0,0,0,4.128,15.315,1.318,1.318,0,0,0,2.321-1.252A31.671,31.671,0,0,1,22.522,9.246,31.748,31.748,0,0,1,34.963,16.6a34.523,34.523,0,0,0,5.821,28.71,31.46,31.46,0,0,1-12.44-9.778,1.318,1.318,0,1,0-2.094,1.6,34.267,34.267,0,0,0,8.9,8.164A31.879,31.879,0,0,1,13.212,16.39a31.807,31.807,0,0,1,5.924.811Z" fill="#f7ef8a"/>
      <path id="Path_31" data-name="Path 31" d="M14.5,66.364h61A14.518,14.518,0,0,0,90,51.862a1.318,1.318,0,0,0-1.318-1.318h-30.5A14.522,14.522,0,0,0,45,59.006a14.522,14.522,0,0,0-13.184-8.462H1.318A1.318,1.318,0,0,0,0,51.862,14.518,14.518,0,0,0,14.5,66.364Zm15.82-2.637a11.881,11.881,0,0,1-11.79-10.547H30.561a14.5,14.5,0,0,0,6.117,10.547Zm-9.215-.676a11.894,11.894,0,0,1-7.848-9.871h2.624a14.488,14.488,0,0,0,5.224,9.871Zm32.216.676a14.5,14.5,0,0,0,6.117-10.547H71.468a11.881,11.881,0,0,1-11.79,10.547ZM74.117,53.181h2.624a11.894,11.894,0,0,1-7.848,9.871,14.488,14.488,0,0,0,5.224-9.871ZM75.5,63.728H73.274A14.5,14.5,0,0,0,79.39,53.181h7.9A11.883,11.883,0,0,1,75.5,63.728ZM56.779,53.267A11.884,11.884,0,0,1,46.4,63.642,11.886,11.886,0,0,1,56.779,53.267ZM43.6,63.642A11.885,11.885,0,0,1,33.221,53.267,11.886,11.886,0,0,1,43.6,63.642ZM10.61,53.181a14.5,14.5,0,0,0,6.117,10.547H14.5A11.883,11.883,0,0,1,2.709,53.181Z" fill="#f7ef8a"/>
    </g>
  </g>
</svg>
