<svg xmlns="http://www.w3.org/2000/svg" xmlns:xlink="http://www.w3.org/1999/xlink" width="90" height="90" viewBox="0 0 90 90">
  <defs>
    <clipPath id="clip-path">
      <path id="Path_28" data-name="Path 28" d="M0,0H90V90H0V0Z" transform="translate(286 2811)" fill="#f7ef8a" stroke="#707070" stroke-width="1"/>
    </clipPath>
  </defs>
  <g id="Mask_Group_22" data-name="Mask Group 22" transform="translate(-286 -2811)" clip-path="url(#clip-path)">
    <g id="_004-moon" data-name="004-moon" transform="translate(286 2811)">
      <path id="Path_38" data-name="Path 38" d="M89.8,34.563a3.929,3.929,0,0,0-1.966-2.3L71.926,24.154a9.922,9.922,0,0,0-7.621-.6,10.1,10.1,0,0,0-1.015.392,10.141,10.141,0,0,0,.06-1.087A9.923,9.923,0,0,0,60.424,15.8L47.8,3.169a3.955,3.955,0,0,0-5.593,0L29.576,15.8A9.924,9.924,0,0,0,26.65,22.86a10.1,10.1,0,0,0,.06,1.087,10.133,10.133,0,0,0-1.015-.392,9.923,9.923,0,0,0-7.621.6L2.161,32.261A3.955,3.955,0,0,0,.433,37.581L8.541,53.493a9.924,9.924,0,0,0,5.813,4.965,10.091,10.091,0,0,0,1.052.279,10.1,10.1,0,0,0-.687.844,9.922,9.922,0,0,0-1.784,7.433l2.794,17.639a3.961,3.961,0,0,0,3.9,3.337c.2,0,18.26-2.843,18.26-2.843a9.923,9.923,0,0,0,6.518-3.994,10.1,10.1,0,0,0,.59-.914,10.135,10.135,0,0,0,.59.914,9.923,9.923,0,0,0,6.518,3.994s18.055,2.843,18.26,2.843a3.962,3.962,0,0,0,3.9-3.337l2.794-17.639a9.922,9.922,0,0,0-1.784-7.433,10.129,10.129,0,0,0-.687-.844,10.079,10.079,0,0,0,1.052-.279,9.922,9.922,0,0,0,5.813-4.965l8.108-15.912a3.929,3.929,0,0,0,.237-3.018Zm-24.684-8.5a7.3,7.3,0,0,1,5.609.441l14.645,7.462-22.5,2.261a24.5,24.5,0,0,0-8.756,2.593l7.329-10.087A7.3,7.3,0,0,1,65.12,26.062ZM45,9.536,49.165,28.7A21.913,21.913,0,0,1,46.1,45.321a3.935,3.935,0,0,0-2.192,0A21.912,21.912,0,0,1,40.835,28.7ZM43.682,49.121A1.318,1.318,0,1,1,45,50.439,1.32,1.32,0,0,1,43.682,49.121Zm-1.8,2.429a3.972,3.972,0,0,0,1.772,1.29A21.913,21.913,0,0,1,36.366,68.09L21.733,81.146l7.894-17.952A21.912,21.912,0,0,1,41.882,51.549Zm6.236,0A21.914,21.914,0,0,1,60.373,63.194l7.894,17.952L53.634,68.09A21.913,21.913,0,0,1,46.346,52.84a3.974,3.974,0,0,0,1.772-1.29Zm.834-2.56a3.93,3.93,0,0,0-.677-2.084,21.913,21.913,0,0,1,14.861-8.056l19.512-1.961L65.709,46.771A21.914,21.914,0,0,1,48.952,48.989ZM58.56,17.661a7.352,7.352,0,0,1,.749,9.519s-7.329,10.09-7.329,10.09a24.5,24.5,0,0,0-.239-9.132l-4.8-22.1Zm-27.12,0L43.062,6.04l-4.8,22.1a24.5,24.5,0,0,0-.24,9.129L30.691,27.181a7.352,7.352,0,0,1,.749-9.519ZM19.271,26.5a7.352,7.352,0,0,1,9.285,2.229S35.888,38.82,35.888,38.82a24.5,24.5,0,0,0-8.759-2.595l-22.5-2.261ZM10.89,52.3,3.428,37.651l14.979,8.74a1.318,1.318,0,0,0,1.329-2.277L7.353,36.888l19.512,1.961A21.914,21.914,0,0,1,41.726,46.9a3.93,3.93,0,0,0-.677,2.084,21.914,21.914,0,0,1-16.757-2.218,1.318,1.318,0,0,0-1.329,2.277A24.5,24.5,0,0,0,31.574,52.1L19.712,55.95A7.352,7.352,0,0,1,10.89,52.3ZM15.538,66.6a7.351,7.351,0,0,1,4.989-8.142S32.388,54.6,32.388,54.6a24.5,24.5,0,0,0-5.174,7.528l-9.1,20.7Zm26.738,13a7.3,7.3,0,0,1-4.8,2.94L21.245,85.114,38.122,70.058a24.5,24.5,0,0,0,5.56-7.245V75.282A7.306,7.306,0,0,1,42.277,79.6Zm5.447,0a7.305,7.305,0,0,1-1.4-4.321s0-12.471,0-12.471a24.5,24.5,0,0,0,5.561,7.247L68.755,85.114,52.521,82.542a7.3,7.3,0,0,1-4.8-2.94Zm26.738-13L71.891,82.835l-9.1-20.7a24.5,24.5,0,0,0-5.172-7.526L69.472,58.46A7.351,7.351,0,0,1,74.462,66.6ZM79.11,52.3a7.352,7.352,0,0,1-8.822,3.654S58.423,52.1,58.423,52.1a24.5,24.5,0,0,0,8.614-3.048l19.534-11.4Z" fill="#f7ef8a"/>
    </g>
  </g>
</svg>
