<svg xmlns="http://www.w3.org/2000/svg" xmlns:xlink="http://www.w3.org/1999/xlink" width="90" height="90" viewBox="0 0 90 90">
  <defs>
    <clipPath id="clip-path">
      <path id="Path_28" data-name="Path 28" d="M0,0H90V90H0V0Z" transform="translate(693 2811)" fill="#f7ef8a" stroke="#707070" stroke-width="1"/>
    </clipPath>
  </defs>
  <g id="Mask_Group_23" data-name="Mask Group 23" transform="translate(-693 -2811)" clip-path="url(#clip-path)">
    <g id="_005-rafflesia" data-name="005-rafflesia" transform="translate(693 2811)">
      <circle id="Ellipse_3" data-name="Ellipse 3" cx="1.319" cy="1.319" r="1.319" transform="translate(43.681 75.76)" fill="#f7ef8a"/>
      <circle id="Ellipse_4" data-name="Ellipse 4" cx="1.319" cy="1.319" r="1.319" transform="translate(48.956 80.465)" fill="#f7ef8a"/>
      <circle id="Ellipse_5" data-name="Ellipse 5" cx="1.319" cy="1.319" r="1.319" transform="translate(38.406 80.465)" fill="#f7ef8a"/>
      <circle id="Ellipse_6" data-name="Ellipse 6" cx="1.319" cy="1.319" r="1.319" transform="translate(33.132 75.76)" fill="#f7ef8a"/>
      <circle id="Ellipse_7" data-name="Ellipse 7" cx="1.319" cy="1.319" r="1.319" transform="translate(54.231 75.76)" fill="#f7ef8a"/>
      <path id="Path_39" data-name="Path 39" d="M76.009,53.591a1.319,1.319,0,1,0,.847,1.662A1.319,1.319,0,0,0,76.009,53.591Z" fill="#f7ef8a"/>
      <path id="Path_40" data-name="Path 40" d="M82.113,50.028a1.319,1.319,0,1,0,.847,1.662A1.319,1.319,0,0,0,82.113,50.028Z" fill="#f7ef8a"/>
      <path id="Path_41" data-name="Path 41" d="M78.853,60.062a1.319,1.319,0,1,0,.847,1.662,1.319,1.319,0,0,0-.847-1.662Z" fill="#f7ef8a"/>
      <path id="Path_42" data-name="Path 42" d="M72.749,63.625a1.319,1.319,0,1,0,.847,1.662,1.319,1.319,0,0,0-.847-1.662Z" fill="#f7ef8a"/>
      <path id="Path_43" data-name="Path 43" d="M79.269,43.558a1.319,1.319,0,1,0,.847,1.662,1.319,1.319,0,0,0-.847-1.662Z" fill="#f7ef8a"/>
      <path id="Path_44" data-name="Path 44" d="M62.846,18.1a1.319,1.319,0,1,0,1.842-.292A1.319,1.319,0,0,0,62.846,18.1Z" fill="#f7ef8a"/>
      <path id="Path_45" data-name="Path 45" d="M61.635,13.032a1.319,1.319,0,1,0-.292-1.842,1.319,1.319,0,0,0,.292,1.842Z" fill="#f7ef8a"/>
      <path id="Path_46" data-name="Path 46" d="M70.17,19.232a1.319,1.319,0,1,0-.292-1.842A1.319,1.319,0,0,0,70.17,19.232Z" fill="#f7ef8a"/>
      <path id="Path_47" data-name="Path 47" d="M71.381,24.3a1.319,1.319,0,1,0,1.842-.292A1.319,1.319,0,0,0,71.381,24.3Z" fill="#f7ef8a"/>
      <path id="Path_48" data-name="Path 48" d="M54.6,13.737a1.319,1.319,0,1,0-.292-1.842A1.319,1.319,0,0,0,54.6,13.737Z" fill="#f7ef8a"/>
      <path id="Path_49" data-name="Path 49" d="M26.862,19.938a1.319,1.319,0,1,0-1.842-.292A1.319,1.319,0,0,0,26.862,19.938Z" fill="#f7ef8a"/>
      <path id="Path_50" data-name="Path 50" d="M19.83,19.232a1.319,1.319,0,1,0-1.842-.292A1.319,1.319,0,0,0,19.83,19.232Z" fill="#f7ef8a"/>
      <path id="Path_51" data-name="Path 51" d="M28.364,13.032a1.319,1.319,0,1,0-1.842-.292A1.319,1.319,0,0,0,28.364,13.032Z" fill="#f7ef8a"/>
      <path id="Path_52" data-name="Path 52" d="M35.4,13.737a1.319,1.319,0,1,0-1.842-.292A1.319,1.319,0,0,0,35.4,13.737Z" fill="#f7ef8a"/>
      <path id="Path_53" data-name="Path 53" d="M18.328,26.139a1.319,1.319,0,1,0-1.842-.292A1.319,1.319,0,0,0,18.328,26.139Z" fill="#f7ef8a"/>
      <path id="Path_54" data-name="Path 54" d="M13.991,53.591a1.319,1.319,0,1,0,1.662.846,1.319,1.319,0,0,0-1.662-.846Z" fill="#f7ef8a"/>
      <path id="Path_55" data-name="Path 55" d="M11.147,60.062a1.319,1.319,0,1,0,1.662.846,1.319,1.319,0,0,0-1.662-.846Z" fill="#f7ef8a"/>
      <path id="Path_56" data-name="Path 56" d="M7.887,50.028a1.319,1.319,0,1,0,1.662.847,1.319,1.319,0,0,0-1.662-.847Z" fill="#f7ef8a"/>
      <path id="Path_57" data-name="Path 57" d="M11.546,46.066a1.319,1.319,0,1,0-1.662-.846,1.319,1.319,0,0,0,1.662.846Z" fill="#f7ef8a"/>
      <path id="Path_58" data-name="Path 58" d="M17.251,63.625a1.319,1.319,0,1,0,1.662.847A1.319,1.319,0,0,0,17.251,63.625Z" fill="#f7ef8a"/>
      <path id="Path_59" data-name="Path 59" d="M33.211,48.733a3.956,3.956,0,1,0,2.54-4.985A3.963,3.963,0,0,0,33.211,48.733Zm3.355-2.477a1.319,1.319,0,1,1-.846,1.662A1.316,1.316,0,0,1,36.566,46.256Z" fill="#f7ef8a"/>
      <path id="Path_60" data-name="Path 60" d="M41.044,53.342A3.956,3.956,0,1,0,45,49.386a3.961,3.961,0,0,0-3.956,3.956ZM45,52.024a1.319,1.319,0,1,1-1.319,1.319A1.32,1.32,0,0,1,45,52.024Z" fill="#f7ef8a"/>
      <path id="Path_61" data-name="Path 61" d="M49.264,46.288a3.956,3.956,0,1,0,4.985-2.54,3.961,3.961,0,0,0-4.985,2.54Zm5.017,1.63a1.319,1.319,0,1,1-.847-1.662A1.32,1.32,0,0,1,54.281,47.918Z" fill="#f7ef8a"/>
      <path id="Path_62" data-name="Path 62" d="M47.635,41.275a3.927,3.927,0,0,0,2.317.756,4,4,0,0,0,.627-.05,3.956,3.956,0,1,0-2.944-.707ZM48.894,37.3a1.319,1.319,0,1,1-.236.981,1.318,1.318,0,0,1,.236-.981Z" fill="#f7ef8a"/>
      <path id="Path_63" data-name="Path 63" d="M39.42,41.982a4,4,0,0,0,.627.05,3.967,3.967,0,1,0-.627-.05Zm-.684-4.114a1.319,1.319,0,1,1,.235.981A1.31,1.31,0,0,1,38.737,37.868Z" fill="#f7ef8a"/>
      <path id="Path_64" data-name="Path 64" d="M86.517,36.84a11.837,11.837,0,0,0-6.465-3.327,11.883,11.883,0,0,0-1.472-17.95L62.526,3.9A11.883,11.883,0,0,0,45,8.046,11.883,11.883,0,0,0,27.474,3.9L11.419,15.563a11.884,11.884,0,0,0-1.472,17.95A11.883,11.883,0,0,0,.587,48.9L6.72,67.774a11.817,11.817,0,0,0,9.432,8.055,12,12,0,0,0,1.881.148,11.8,11.8,0,0,0,5.3-1.257A11.883,11.883,0,0,0,35.078,88.377H54.922A11.883,11.883,0,0,0,66.664,74.721a11.8,11.8,0,0,0,5.3,1.257,12.02,12.02,0,0,0,1.881-.148,11.817,11.817,0,0,0,9.432-8.055L89.413,48.9a11.817,11.817,0,0,0-2.9-12.06ZM51.359,5.276a9.074,9.074,0,0,1,9.617.757L77.031,17.7A9.231,9.231,0,0,1,74.472,33.94l-3.071,1A28.276,28.276,0,0,0,46.319,16.714s0-3.227,0-3.233a9.074,9.074,0,0,1,5.04-8.205ZM45,70.485A25.583,25.583,0,1,1,70.583,44.9,25.612,25.612,0,0,1,45,70.485ZM9.278,26.609A9.074,9.074,0,0,1,12.969,17.7L29.024,6.032a9.231,9.231,0,0,1,14.657,7.448c0,.007,0,3.233,0,3.233A28.275,28.275,0,0,0,18.6,34.938l-3.071-1a9.074,9.074,0,0,1-6.25-7.33Zm7.286,46.614a9.074,9.074,0,0,1-7.336-6.265L3.1,48.085A9.074,9.074,0,0,1,5.348,38.7a9.074,9.074,0,0,1,9.365-2.257l3.069,1a28.2,28.2,0,0,0,9.59,29.477l-1.907,2.625a9.073,9.073,0,0,1-8.9,3.677ZM63.148,80.7a9.074,9.074,0,0,1-8.225,5.041H35.078A9.231,9.231,0,0,1,27.6,71.1l1.9-2.622a28.158,28.158,0,0,0,30.993,0l1.9,2.618a9.074,9.074,0,0,1,.749,9.606ZM86.9,48.085,80.772,66.958a9.231,9.231,0,0,1-16.239,2.586l-1.905-2.622a28.2,28.2,0,0,0,9.59-29.477l3.069-1A9.231,9.231,0,0,1,86.9,48.085Z" fill="#f7ef8a"/>
      <path id="Path_65" data-name="Path 65" d="M45,62.573A17.671,17.671,0,1,0,27.329,44.9,17.691,17.691,0,0,0,45,62.573Zm0-32.7A15.033,15.033,0,1,1,29.967,44.9,15.05,15.05,0,0,1,45,29.869Z" fill="#f7ef8a"/>
      <path id="Path_66" data-name="Path 66" d="M45,21.957a22.962,22.962,0,0,0-11.125,2.875,1.319,1.319,0,0,0,1.281,2.306,20.339,20.339,0,1,1-4.006,2.915,1.319,1.319,0,1,0-1.8-1.928A22.944,22.944,0,1,0,45,21.957Z" fill="#f7ef8a"/>
    </g>
  </g>
</svg>
