<svg xmlns="http://www.w3.org/2000/svg" xmlns:xlink="http://www.w3.org/1999/xlink" width="90" height="90" viewBox="0 0 90 90">
  <defs>
    <clipPath id="clip-path">
      <path id="Path_28" data-name="Path 28" d="M0,0H90V90H0V0Z" transform="translate(1106 2433)" fill="#f7ef8a"/>
    </clipPath>
  </defs>
  <g id="Mask_Group_21" data-name="Mask Group 21" transform="translate(-1106 -2433)" clip-path="url(#clip-path)">
    <g id="_003-african" data-name="003-african" transform="translate(1106 2433)">
      <path id="Path_35" data-name="Path 35" d="M85.956,51.487a7.222,7.222,0,0,0,0-12.974,7.222,7.222,0,0,0-4.009-12.338,7.221,7.221,0,0,0-7.626-10.5,7.222,7.222,0,0,0-10.5-7.626A7.222,7.222,0,0,0,51.487,4.044a7.222,7.222,0,0,0-12.974,0A7.222,7.222,0,0,0,26.175,8.053a7.222,7.222,0,0,0-10.5,7.626,7.222,7.222,0,0,0-7.626,10.5A7.222,7.222,0,0,0,4.044,38.513a7.224,7.224,0,0,0,0,12.974A7.226,7.226,0,0,0,8.053,63.827a7.225,7.225,0,0,0,5.822,10.58q.286.022.57.022a7.226,7.226,0,0,0,1.235-.108,7.222,7.222,0,0,0,10.5,7.625,7.222,7.222,0,0,0,12.338,4.009,7.222,7.222,0,0,0,12.973,0,7.222,7.222,0,0,0,12.339-4.009,7.222,7.222,0,0,0,10.5-7.625,7.226,7.226,0,0,0,1.235.108c.189,0,.38-.007.57-.022a7.222,7.222,0,0,0,5.822-10.58,7.223,7.223,0,0,0,4.009-12.339Zm-.2-9.978a4.591,4.591,0,0,1-3.7,8.025L62.78,46.481c.04-.488.062-.982.062-1.481s-.022-.993-.062-1.481l19.275-3.053A4.587,4.587,0,0,1,85.754,41.509ZM45,60.205A15.205,15.205,0,1,1,60.205,45,15.222,15.222,0,0,1,45,60.205Zm40.29-28.3a4.59,4.59,0,0,1-3.648,5.953L62.369,40.914a17.678,17.678,0,0,0-.917-2.817l17.388-8.86a4.591,4.591,0,0,1,6.45,2.672ZM75.919,18.221a4.591,4.591,0,0,1,1.724,8.667L60.251,35.749a17.959,17.959,0,0,0-1.743-2.393l13.8-13.8a4.583,4.583,0,0,1,3.606-1.33ZM66.131,9.978a4.591,4.591,0,0,1,4.318,7.71l-13.8,13.8a17.932,17.932,0,0,0-2.393-1.743l8.861-17.391a4.584,4.584,0,0,1,3.019-2.38ZM54.274,5.162a4.591,4.591,0,0,1,6.489,6L51.9,28.548a17.7,17.7,0,0,0-2.817-.917L52.138,8.358A4.583,4.583,0,0,1,54.274,5.162ZM41.509,4.246a4.591,4.591,0,0,1,8.025,3.7L46.481,27.22c-.489-.04-.982-.062-1.481-.062s-.993.022-1.481.062L40.466,7.945A4.584,4.584,0,0,1,41.509,4.246ZM29.087,7.319a4.591,4.591,0,0,1,8.775,1.039l3.052,19.273a17.678,17.678,0,0,0-2.817.917L29.237,11.16a4.585,4.585,0,0,1-.151-3.841ZM10.727,20.1a4.591,4.591,0,0,1,6.96-.548l5.483,5.483a1.318,1.318,0,1,0,1.864-1.864l-5.483-5.483a4.591,4.591,0,1,1,7.336-5.33l8.861,17.391a17.933,17.933,0,0,0-2.393,1.744L28.764,26.9A1.318,1.318,0,0,0,26.9,28.764l4.593,4.593a17.932,17.932,0,0,0-1.743,2.393L12.357,26.888a4.591,4.591,0,0,1-1.63-6.788ZM4.71,31.909a4.59,4.59,0,0,1,6.45-2.672L28.548,38.1a17.7,17.7,0,0,0-.917,2.817L8.358,37.862A4.591,4.591,0,0,1,4.71,31.909ZM4.246,48.491a4.591,4.591,0,0,1,3.7-8.025L27.22,43.519c-.04.488-.062.982-.062,1.481s.022.993.062,1.481L7.945,49.534a4.584,4.584,0,0,1-3.7-1.043Zm.464,9.6a4.59,4.59,0,0,1,3.648-5.952l19.273-3.052a17.7,17.7,0,0,0,.917,2.817L11.16,60.763a4.591,4.591,0,0,1-6.45-2.672Zm9.371,13.688a4.59,4.59,0,0,1-1.724-8.667l17.391-8.861a17.933,17.933,0,0,0,1.744,2.393l-13.8,13.8a4.586,4.586,0,0,1-3.606,1.33Zm9.788,8.244a4.591,4.591,0,0,1-4.318-7.71l13.8-13.8a17.932,17.932,0,0,0,2.393,1.743L26.888,77.643a4.584,4.584,0,0,1-3.018,2.38Zm11.857,4.816a4.591,4.591,0,0,1-6.489-6L38.1,61.452a17.714,17.714,0,0,0,2.817.917L37.862,81.642a4.584,4.584,0,0,1-2.136,3.2Zm12.765.916a4.591,4.591,0,0,1-8.025-3.7L43.519,62.78c.488.04.982.062,1.481.062s.993-.022,1.481-.062l3.053,19.275A4.584,4.584,0,0,1,48.491,85.754Zm12.423-3.073a4.591,4.591,0,0,1-8.775-1.039L49.086,62.369a17.691,17.691,0,0,0,2.817-.917l8.86,17.388a4.584,4.584,0,0,1,.151,3.841Zm10.865-6.762a4.591,4.591,0,0,1-8.667,1.724L54.251,60.251a17.933,17.933,0,0,0,2.393-1.744l13.8,13.8a4.585,4.585,0,0,1,1.33,3.606ZM79.273,69.9a4.591,4.591,0,0,1-6.96.548l-13.8-13.8a17.942,17.942,0,0,0,1.743-2.393l17.391,8.861a4.59,4.59,0,0,1,1.63,6.788Zm6.017-11.81a4.591,4.591,0,0,1-6.45,2.672L61.452,51.9a17.713,17.713,0,0,0,.917-2.817l19.273,3.053a4.591,4.591,0,0,1,3.648,5.953Z" fill="#f7ef8a"/>
      <path id="Path_36" data-name="Path 36" d="M45,38.408A6.592,6.592,0,1,0,51.592,45,6.6,6.6,0,0,0,45,38.408Zm0,10.547A3.955,3.955,0,1,1,48.955,45,3.959,3.959,0,0,1,45,48.955Z" fill="#f7ef8a"/>
      <path id="Path_37" data-name="Path 37" d="M57.568,45a5.246,5.246,0,0,0-1.007-3.1,5.271,5.271,0,0,0-3.1-5.366,5.271,5.271,0,0,0-5.366-3.1,5.271,5.271,0,0,0-6.2,0,5.271,5.271,0,0,0-5.366,3.1,5.271,5.271,0,0,0-3.1,5.366,5.271,5.271,0,0,0,0,6.2,5.271,5.271,0,0,0,3.1,5.366,5.271,5.271,0,0,0,5.366,3.1,5.271,5.271,0,0,0,6.2,0,5.271,5.271,0,0,0,5.366-3.1,5.271,5.271,0,0,0,3.1-5.366A5.246,5.246,0,0,0,57.568,45Zm-3.362,1.815a1.318,1.318,0,0,0-.326,1.216,2.633,2.633,0,0,1-1.815,3.143,1.318,1.318,0,0,0-.891.89,2.633,2.633,0,0,1-3.143,1.815,1.319,1.319,0,0,0-1.216.326,2.633,2.633,0,0,1-3.63,0,1.319,1.319,0,0,0-1.217-.326,2.633,2.633,0,0,1-3.143-1.815,1.318,1.318,0,0,0-.891-.891,2.633,2.633,0,0,1-1.815-3.143,1.318,1.318,0,0,0-.326-1.216,2.633,2.633,0,0,1,0-3.63,1.318,1.318,0,0,0,.326-1.216,2.632,2.632,0,0,1,1.815-3.143,1.318,1.318,0,0,0,.891-.891,2.632,2.632,0,0,1,3.143-1.815,1.32,1.32,0,0,0,1.217-.326,2.633,2.633,0,0,1,3.63,0,1.319,1.319,0,0,0,1.217.326,2.632,2.632,0,0,1,3.143,1.815,1.319,1.319,0,0,0,.891.891,2.633,2.633,0,0,1,1.815,3.143,1.319,1.319,0,0,0,.326,1.216,2.633,2.633,0,0,1,0,3.63Z" fill="#f7ef8a"/>
    </g>
  </g>
</svg>
