<svg xmlns="http://www.w3.org/2000/svg" xmlns:xlink="http://www.w3.org/1999/xlink" width="90" height="90" viewBox="0 0 90 90">
  <defs>
    <clipPath id="clip-path">
      <path id="Path_28" data-name="Path 28" d="M0,0H90V90H0V0Z" transform="translate(699 2433)" fill="#f7ef8a" stroke="#707070" stroke-width="1"/>
    </clipPath>
  </defs>
  <g id="Mask_Group_20" data-name="Mask Group 20" transform="translate(-699 -2433)" clip-path="url(#clip-path)">
    <g id="_002-passiflora" data-name="002-passiflora" transform="translate(699 2433)">
      <path id="Path_32" data-name="Path 32" d="M62,42.8a3.955,3.955,0,0,0,1.448-5.4l-2.637-4.567a3.955,3.955,0,0,0-7.12.567,14.5,14.5,0,0,0-2.981-1.726,3.953,3.953,0,0,0-3.07-6.445H42.363a3.953,3.953,0,0,0-3.07,6.445A14.507,14.507,0,0,0,36.312,33.4a3.955,3.955,0,0,0-7.12-.567L26.556,37.4a3.954,3.954,0,0,0,3.418,5.932,3.974,3.974,0,0,0,.63-.052,14.063,14.063,0,0,0,0,3.448A3.953,3.953,0,0,0,26.556,52.6l2.637,4.567a3.955,3.955,0,0,0,7.12-.567,14.5,14.5,0,0,0,2.981,1.726,3.953,3.953,0,0,0,3.07,6.445h5.273a3.953,3.953,0,0,0,3.07-6.445A14.507,14.507,0,0,0,53.688,56.6a3.955,3.955,0,0,0,7.12.567L63.444,52.6A3.952,3.952,0,0,0,59.4,46.723a14.062,14.062,0,0,0,0-3.448,3.972,3.972,0,0,0,.63.052A3.93,3.93,0,0,0,62,42.8Zm-5.888-8.333a1.319,1.319,0,0,1,2.415-.318l2.637,4.567a1.318,1.318,0,1,1-2.283,1.318l-2.637-4.567a1.308,1.308,0,0,1-.132-1Zm-.24,15.288-2.3-1.329a9.2,9.2,0,0,0,0-6.848l2.3-1.329a11.83,11.83,0,0,1,0,9.506ZM33.135,45a11.792,11.792,0,0,1,1-4.753l2.3,1.329a9.2,9.2,0,0,0,0,6.848l-2.3,1.329A11.8,11.8,0,0,1,33.135,45Zm5.273,0a6.561,6.561,0,0,1,.34-2.087l2.364,1.365a3.908,3.908,0,0,0,0,1.445l-2.364,1.365A6.561,6.561,0,0,1,38.408,45Zm9.159-3a3.957,3.957,0,0,0-1.249-.724V38.541a6.593,6.593,0,0,1,3.612,2.09ZM45,46.318A1.318,1.318,0,1,1,46.318,45,1.32,1.32,0,0,1,45,46.318Zm-1.318-5.047A3.957,3.957,0,0,0,42.432,42L40.07,40.631a6.593,6.593,0,0,1,3.612-2.09ZM42.432,48a3.957,3.957,0,0,0,1.249.724v2.731a6.593,6.593,0,0,1-3.612-2.09Zm3.886.724A3.957,3.957,0,0,0,47.568,48l2.363,1.364a6.593,6.593,0,0,1-3.612,2.09Zm2.569-3.006a3.908,3.908,0,0,0,0-1.445l2.364-1.365a6.566,6.566,0,0,1,0,4.174Zm5.66-7.757-2.3,1.329a9.228,9.228,0,0,0-5.927-3.427V33.21a11.866,11.866,0,0,1,8.229,4.755ZM42.363,30.5a1.318,1.318,0,0,1,0-2.637h5.273a1.318,1.318,0,0,1,0,2.637Zm1.318,2.712v2.657a9.229,9.229,0,0,0-5.927,3.427l-2.3-1.329A11.867,11.867,0,0,1,43.682,33.21Zm-14.36,7.305a1.318,1.318,0,0,1-.483-1.8l2.637-4.567a1.318,1.318,0,1,1,2.284,1.318l-2.637,4.567a1.32,1.32,0,0,1-1.8.483Zm4.569,15.02a1.318,1.318,0,0,1-2.415.318l-2.637-4.567a1.318,1.318,0,1,1,2.283-1.318l2.637,4.567a1.308,1.308,0,0,1,.132,1Zm1.561-3.5,2.3-1.329a9.228,9.228,0,0,0,5.927,3.427V56.79a11.866,11.866,0,0,1-8.229-4.755ZM47.637,59.5a1.318,1.318,0,0,1,0,2.637H42.363a1.318,1.318,0,0,1,0-2.637ZM46.318,56.79V54.133a9.229,9.229,0,0,0,5.927-3.427l2.3,1.329a11.867,11.867,0,0,1-8.229,4.755Zm13.7-7.482a1.318,1.318,0,0,1,1.139,1.977l-2.637,4.567a1.318,1.318,0,1,1-2.284-1.318l2.637-4.567A1.319,1.319,0,0,1,60.022,49.309Z" fill="#f7ef8a" stroke="#707070" stroke-width="0.176"/>
      <path id="Path_33" data-name="Path 33" d="M85.97,36.829a10.307,10.307,0,0,0-3.709-1.813,10.313,10.313,0,0,0-9.984-17.293A10.313,10.313,0,0,0,54.984,7.739a10.313,10.313,0,0,0-19.968,0,10.313,10.313,0,0,0-17.293,9.984A10.313,10.313,0,0,0,7.739,35.016a10.312,10.312,0,0,0,0,19.968A10.306,10.306,0,0,0,13.6,72.562a10.49,10.49,0,0,0,1.371.09,10.231,10.231,0,0,0,2.749-.378,10.313,10.313,0,0,0,17.292,9.987,10.313,10.313,0,0,0,19.969,0,10.313,10.313,0,0,0,17.292-9.987,10.231,10.231,0,0,0,2.749.378,10.52,10.52,0,0,0,1.371-.09,10.313,10.313,0,0,0,5.865-17.578,10.305,10.305,0,0,0,3.71-18.155ZM76.052,20.053a7.663,7.663,0,0,1,.983,15L70,36.936a6.507,6.507,0,0,0-1.282-1.761,6.5,6.5,0,0,0-.338-2.152l10.541-6.086A1.318,1.318,0,0,0,77.6,24.654L67.062,30.74a6.5,6.5,0,0,0-1.694-1.369,6.505,6.505,0,0,0-.884-1.991l5.149-5.149a7.607,7.607,0,0,1,6.419-2.179Zm-8.277,28.6a3.956,3.956,0,0,1-1.226,4.576,1.319,1.319,0,0,0-.494,1.194,3.956,3.956,0,0,1-2.369,4.1,1.318,1.318,0,0,0-.787,1.025,3.955,3.955,0,0,1-3.35,3.35,1.319,1.319,0,0,0-1.025.787,3.956,3.956,0,0,1-4.1,2.369,1.318,1.318,0,0,0-1.194.494,3.956,3.956,0,0,1-4.576,1.226,1.318,1.318,0,0,0-1.281.169,3.956,3.956,0,0,1-4.737,0,1.318,1.318,0,0,0-1.281-.169,3.956,3.956,0,0,1-4.576-1.226,1.317,1.317,0,0,0-1.194-.494,3.956,3.956,0,0,1-4.1-2.369,1.318,1.318,0,0,0-1.025-.787,3.955,3.955,0,0,1-3.35-3.35,1.319,1.319,0,0,0-.787-1.025,3.956,3.956,0,0,1-2.369-4.1,1.319,1.319,0,0,0-.494-1.194,3.956,3.956,0,0,1-1.226-4.576,1.318,1.318,0,0,0-.169-1.281,3.957,3.957,0,0,1,0-4.738,1.318,1.318,0,0,0,.169-1.281,3.956,3.956,0,0,1,1.226-4.576,1.319,1.319,0,0,0,.494-1.194,3.956,3.956,0,0,1,2.369-4.1,1.318,1.318,0,0,0,.787-1.025,3.956,3.956,0,0,1,3.35-3.35,1.319,1.319,0,0,0,1.025-.787,3.956,3.956,0,0,1,4.1-2.369,1.318,1.318,0,0,0,1.194-.494,3.956,3.956,0,0,1,4.576-1.226,1.318,1.318,0,0,0,1.281-.169,3.957,3.957,0,0,1,4.738,0,1.318,1.318,0,0,0,1.281.169,3.956,3.956,0,0,1,4.576,1.226,1.318,1.318,0,0,0,1.194.494,3.956,3.956,0,0,1,4.1,2.369,1.319,1.319,0,0,0,1.025.787,3.956,3.956,0,0,1,3.35,3.35,1.319,1.319,0,0,0,.787,1.025,3.956,3.956,0,0,1,2.369,4.1,1.319,1.319,0,0,0,.494,1.194,3.956,3.956,0,0,1,1.226,4.576,1.319,1.319,0,0,0,.169,1.281,3.957,3.957,0,0,1,0,4.738,1.32,1.32,0,0,0-.168,1.282ZM59.418,7.869a7.663,7.663,0,0,1,8.351,12.5L62.62,25.516a6.5,6.5,0,0,0-1.991-.884,6.5,6.5,0,0,0-1.369-1.694L65.346,12.4a1.318,1.318,0,0,0-2.283-1.318L56.976,21.62a6.593,6.593,0,0,0-2.151-.339A6.509,6.509,0,0,0,53.064,20l1.885-7.034a7.608,7.608,0,0,1,4.469-5.1Zm-20.5-2.234A7.663,7.663,0,0,1,52.4,12.283l-1.885,7.034a6.5,6.5,0,0,0-2.166.23,6.5,6.5,0,0,0-2.033-.783V6.592a1.318,1.318,0,0,0-2.637,0V18.764a6.5,6.5,0,0,0-2.033.783,6.5,6.5,0,0,0-2.166-.23L37.6,12.283A7.607,7.607,0,0,1,38.921,5.635ZM20.053,13.948a7.663,7.663,0,0,1,15-.983L36.936,20a6.5,6.5,0,0,0-1.761,1.282,6.537,6.537,0,0,0-2.152.339L26.938,11.078A1.318,1.318,0,0,0,24.654,12.4L30.74,22.938a6.507,6.507,0,0,0-1.369,1.694,6.5,6.5,0,0,0-1.991.884l-5.149-5.149a7.607,7.607,0,0,1-2.179-6.419Zm-11.74,9.87a7.663,7.663,0,0,1,12.055-1.587l5.149,5.149a6.5,6.5,0,0,0-.884,1.991,6.5,6.5,0,0,0-1.694,1.369l-3.691-2.131a1.318,1.318,0,1,0-1.318,2.283l3.691,2.131a6.5,6.5,0,0,0-.338,2.152A6.5,6.5,0,0,0,20,36.936l-7.034-1.885A7.663,7.663,0,0,1,8.312,23.818ZM2.637,45a7.663,7.663,0,0,1,9.646-7.4l7.034,1.885a6.509,6.509,0,0,0,.23,2.166,6.5,6.5,0,0,0-.783,2.033H6.592a1.318,1.318,0,1,0,0,2.637H18.764a6.5,6.5,0,0,0,.783,2.033,6.5,6.5,0,0,0-.23,2.166L12.283,52.4A7.663,7.663,0,0,1,2.637,45ZM13.948,69.947a7.663,7.663,0,0,1-.983-15L20,53.064a6.5,6.5,0,0,0,1.282,1.761,6.5,6.5,0,0,0,.338,2.152L11.078,63.062A1.318,1.318,0,1,0,12.4,65.346L22.938,59.26a6.507,6.507,0,0,0,1.694,1.369,6.505,6.505,0,0,0,.884,1.991l-5.149,5.149a7.609,7.609,0,0,1-6.419,2.179ZM30.582,82.131a7.663,7.663,0,0,1-8.351-12.5l5.149-5.149a6.5,6.5,0,0,0,1.991.884,6.5,6.5,0,0,0,1.369,1.694L24.654,77.6a1.318,1.318,0,1,0,2.283,1.318L33.023,68.38a6.471,6.471,0,0,0,2.152.338A6.5,6.5,0,0,0,36.936,70l-1.885,7.034a7.607,7.607,0,0,1-4.469,5.1Zm20.5,2.234A7.663,7.663,0,0,1,37.6,77.717l1.885-7.034a6.5,6.5,0,0,0,2.166-.23,6.506,6.506,0,0,0,2.033.783V83.408a1.318,1.318,0,1,0,2.637,0V71.236a6.5,6.5,0,0,0,2.033-.783,6.5,6.5,0,0,0,2.166.23L52.4,77.717a7.608,7.608,0,0,1-1.322,6.648Zm18.868-8.314a7.663,7.663,0,0,1-15,.983L53.064,70a6.509,6.509,0,0,0,1.761-1.282,6.513,6.513,0,0,0,2.151-.339l6.086,10.542A1.318,1.318,0,0,0,65.346,77.6L59.26,67.062a6.5,6.5,0,0,0,1.369-1.694,6.5,6.5,0,0,0,1.991-.884l5.149,5.149A7.608,7.608,0,0,1,69.947,76.052Zm11.74-9.87a7.663,7.663,0,0,1-12.055,1.587L64.484,62.62a6.5,6.5,0,0,0,.884-1.991,6.5,6.5,0,0,0,1.694-1.369L77.6,65.346a1.318,1.318,0,1,0,1.318-2.283L68.38,56.976a6.5,6.5,0,0,0,.338-2.152A6.5,6.5,0,0,0,70,53.064l7.034,1.885a7.663,7.663,0,0,1,4.653,11.233Zm2.678-15.1A7.607,7.607,0,0,1,77.717,52.4l-7.034-1.885a6.509,6.509,0,0,0-.23-2.166,6.5,6.5,0,0,0,.783-2.033H83.408a1.318,1.318,0,0,0,0-2.637H71.236a6.5,6.5,0,0,0-.783-2.033,6.5,6.5,0,0,0,.23-2.166L77.717,37.6a7.663,7.663,0,0,1,6.648,13.481Z" fill="#f7ef8a" stroke="#707070" stroke-width="0.176"/>
      <path id="Path_34" data-name="Path 34" d="M11.078,26.938l2.283,1.318a1.318,1.318,0,0,0,1.318-2.283L12.4,24.654a1.318,1.318,0,1,0-1.318,2.283Z" fill="#f7ef8a" stroke="#707070" stroke-width="0.176"/>
    </g>
  </g>
</svg>
