<svg xmlns="http://www.w3.org/2000/svg" xmlns:xlink="http://www.w3.org/1999/xlink" width="90" height="90" viewBox="0 0 90 90">
  <defs>
    <clipPath id="clip-path">
      <path id="Path_28" data-name="Path 28" d="M0,0H90V90H0V0Z" transform="translate(1100 2811)" fill="#f7ef8a" stroke="#707070" stroke-width="1"/>
    </clipPath>
  </defs>
  <g id="Mask_Group_24" data-name="Mask Group 24" transform="translate(-1100 -2811)" clip-path="url(#clip-path)">
    <g id="_006-plumeria" data-name="006-plumeria" transform="translate(1100 2811)">
      <path id="Path_67" data-name="Path 67" d="M89.442,33.894c-1.373-4.226-5.1-7.39-10.5-8.909a30.5,30.5,0,0,0-17.41.74l-.135.045c0-.047,0-.095,0-.142C61.394,12.382,54.04,1.6,45,1.6S28.605,12.382,28.605,25.629c0,.047,0,.1,0,.143l-.136-.046a30.5,30.5,0,0,0-17.41-.74c-5.4,1.519-9.131,4.683-10.5,8.909-2.793,8.6,5.183,18.922,17.782,23.016l.136.042-.085.115A30.505,30.505,0,0,0,12.306,73.4C12.082,79,13.938,83.527,17.533,86.139A12.272,12.272,0,0,0,24.866,88.4c6.686,0,14.509-4.426,20.052-12.055L45,76.224l.083.116C50.626,83.97,58.448,88.4,65.134,88.4a12.275,12.275,0,0,0,7.333-2.256C76.062,83.527,77.918,79,77.694,73.4a30.5,30.5,0,0,0-6.084-16.329l-.085-.114.136-.043c12.6-4.093,20.575-14.418,17.782-23.016ZM84.111,45.642A27.853,27.853,0,0,1,70.846,54.4a27.852,27.852,0,0,1-15.882.71,17.846,17.846,0,0,1-2.975-1.118q.651.1,1.345.167c.895.085,1.825.128,2.787.128A46.064,46.064,0,0,0,70.031,51.9c6.786-2.2,12.37-5.461,15.835-8.916a17.837,17.837,0,0,1-1.754,2.663ZM62.343,28.233a27.853,27.853,0,0,1,15.882-.71c4.525,1.273,7.618,3.824,8.71,7.185,1.24,3.817-5.732,10.784-17.719,14.678a40.229,40.229,0,0,1-15.632,2.148c-2.876-.275-5.059-1.021-6.3-2.117,7.3-1.5,13.074-10.064,13.985-20.812.36-.131.719-.257,1.074-.373ZM54.525,10.305a27.853,27.853,0,0,1,4.233,15.324,27.854,27.854,0,0,1-4.233,15.324,17.82,17.82,0,0,1-1.991,2.491c2.216-4.363,3.587-10.68,3.587-17.815S54.75,12.177,52.534,7.814A17.853,17.853,0,0,1,54.525,10.305ZM31.242,25.629a27.853,27.853,0,0,1,4.233-15.324C38.083,6.4,41.466,4.242,45,4.242c4.013,0,8.485,8.783,8.485,21.387,0,10.8-3.283,18.793-6.747,20.861.826-7.4-5.536-15.538-15.473-19.724-.014-.383-.022-.763-.022-1.137ZM19.154,54.4A27.852,27.852,0,0,1,5.889,45.642C2.976,41.953,1.973,38.07,3.065,34.709c1.11-3.415,9.262-5.224,20.5-2.192a1.318,1.318,0,0,0,.687-2.546A38.644,38.644,0,0,0,8.835,28.626a17.871,17.871,0,0,1,2.941-1.1,27.852,27.852,0,0,1,15.882.71,27.852,27.852,0,0,1,13.266,8.761,17.86,17.86,0,0,1,1.731,2.62,38.648,38.648,0,0,0-13.262-7.972,1.318,1.318,0,0,0-.941,2.463c9.15,3.494,14.516,8.477,15.326,12-6.785-3.069-16.485.468-23.535,8.623-.368-.106-.733-.215-1.088-.33ZM14.941,73.5a27.853,27.853,0,0,1,5.583-14.885,27.856,27.856,0,0,1,12.431-9.909,17.846,17.846,0,0,1,3.076-.846c-4.358,2.227-9.179,6.532-13.374,12.3a42.887,42.887,0,0,0-7.314,15.18q-.151.677-.256,1.323a17.828,17.828,0,0,1-.146-3.167ZM42.784,74.79A27.856,27.856,0,0,1,30.353,84.7c-4.409,1.63-8.411,1.384-11.27-.693-.055-.04-.106-.085-.16-.126-1.49-1.254-1.858-4.134-1.007-7.961a40.228,40.228,0,0,1,6.874-14.2c6.346-8.734,13.7-13.272,17.717-12.911C40.047,51.492,38.813,55.383,39,60.011a29.464,29.464,0,0,0,4.436,13.848c-.214.317-.431.629-.65.931Zm4.432,0a27.851,27.851,0,0,1-5.583-14.885,17.816,17.816,0,0,1,.146-3.168q.106.647.256,1.323a42.884,42.884,0,0,0,7.314,15.18c4.2,5.776,9.021,10.08,13.38,12.306a17.813,17.813,0,0,1-3.082-.847A27.849,27.849,0,0,1,47.216,74.79Zm22.26-16.173A27.851,27.851,0,0,1,75.059,73.5c.188,4.7-1.283,8.427-4.142,10.5C67.67,86.365,58.89,81.888,51.482,71.691a40.228,40.228,0,0,1-6.874-14.2c-.628-2.819-.592-5.124.065-6.644,1.794,3.172,5.115,5.551,9.577,6.806a26.376,26.376,0,0,0,7.128.94,32.61,32.61,0,0,0,7.413-.88c.236.3.466.606.685.907Z" fill="#f7ef8a"/>
    </g>
  </g>
</svg>
