<svg xmlns="http://www.w3.org/2000/svg" xmlns:xlink="http://www.w3.org/1999/xlink" width="30" height="30" viewBox="0 0 30 30">
  <defs>
    <clipPath id="clip-path">
      <rect id="Rectangle_31" data-name="Rectangle 31" width="30" height="30" transform="translate(1356 84)" fill="#fff" stroke="#707070" stroke-width="1"/>
    </clipPath>
  </defs>
  <g id="twitter" transform="translate(-1356 -84)" clip-path="url(#clip-path)">
    <path id="twitter-2" data-name="twitter" d="M29.887,5.775a12.348,12.348,0,0,1-3.03.865c.487-.082,1.207-.966,1.5-1.324a5.575,5.575,0,0,0,1.009-1.837c.026-.052.047-.118-.006-.158a.176.176,0,0,0-.161.014,15.485,15.485,0,0,1-3.6,1.378.242.242,0,0,1-.248-.066,2.908,2.908,0,0,0-.314-.322,6.37,6.37,0,0,0-1.744-1.069,6.072,6.072,0,0,0-2.675-.431,6.4,6.4,0,0,0-2.538.717,6.546,6.546,0,0,0-2.046,1.671,6.284,6.284,0,0,0-1.222,2.449,6.664,6.664,0,0,0-.066,2.585c.021.144.007.164-.123.144C9.674,9.656,5.577,7.886,2.25,4.1c-.144-.165-.223-.165-.341.012C.453,6.292,1.159,9.8,2.977,11.52c.243.23.491.459.76.668a6.3,6.3,0,0,1-2.387-.668c-.144-.091-.217-.038-.23.125a3.741,3.741,0,0,0,.039.709A6.344,6.344,0,0,0,5.07,17.41a3.694,3.694,0,0,0,.793.242,7.069,7.069,0,0,1-2.341.073c-.171-.034-.236.052-.171.216A6.581,6.581,0,0,0,8.27,22.059c.223.039.446.039.669.092-.013.02-.026.02-.039.039-.553.842-2.467,1.469-3.359,1.781a12.042,12.042,0,0,1-5.1.652c-.274-.04-.332-.038-.406,0s-.009.113.079.183c.347.23.7.433,1.062.63A16.828,16.828,0,0,0,4.584,26.8c6.128,1.692,13.031.449,17.634-4.123,3.612-3.591,4.879-8.542,4.879-13.5,0-.193.229-.3.366-.4a11.855,11.855,0,0,0,2.389-2.5A.726.726,0,0,0,30,5.8V5.775C30,5.7,30.009,5.72,29.887,5.775Z" transform="translate(1356 83.832)" fill="#fff" fill-rule="evenodd"/>
  </g>
</svg>
