<svg xmlns="http://www.w3.org/2000/svg" xmlns:xlink="http://www.w3.org/1999/xlink" width="30" height="30" viewBox="0 0 30 30">
  <defs>
    <clipPath id="clip-path">
      <rect id="Rectangle_31" data-name="Rectangle 31" width="30" height="30" transform="translate(1406 84)" fill="#fff" stroke="#707070" stroke-width="1"/>
    </clipPath>
  </defs>
  <g id="whatsapp" transform="translate(-1406 -84)" clip-path="url(#clip-path)">
    <g id="whatsapp-2" data-name="whatsapp" transform="translate(1406 84)">
      <path id="Path_14" data-name="Path 14" d="M21.883,17.883l-.011.094c-2.749-1.37-3.036-1.552-3.391-1.02-.246.369-.964,1.2-1.18,1.452s-.436.262-.807.094a10.145,10.145,0,0,1-3-1.856,11.34,11.34,0,0,1-2.075-2.587c-.366-.632.4-.722,1.1-2.042a.687.687,0,0,0-.031-.655c-.094-.187-.84-2.025-1.152-2.757s-.609-.637-.84-.637a1.86,1.86,0,0,0-1.71.43C6.761,10.615,7.27,12.9,9,15.335c3.392,4.44,5.2,5.257,8.5,6.392a5.171,5.171,0,0,0,2.35.151,3.847,3.847,0,0,0,2.52-1.782,3.094,3.094,0,0,0,.225-1.781c-.092-.169-.337-.262-.712-.431Z" fill="#fff"/>
      <path id="Path_15" data-name="Path 15" d="M25.65,4.311C16.038-4.98.132,1.759.126,14.866A14.8,14.8,0,0,0,2.12,22.3L0,30l7.919-2.065A14.963,14.963,0,0,0,30,14.873,14.743,14.743,0,0,0,25.631,4.36ZM27.5,14.832A12.445,12.445,0,0,1,8.737,25.462l-.45-.267L3.6,26.413l1.256-4.556-.3-.469A12.4,12.4,0,0,1,23.866,6.095,12.235,12.235,0,0,1,27.5,14.832Z" fill="#fff"/>
    </g>
  </g>
</svg>
