<svg id="separador" xmlns="http://www.w3.org/2000/svg" xmlns:xlink="http://www.w3.org/1999/xlink" width="473" height="37" viewBox="0 0 473 37">
  <defs>
    <clipPath id="clip-path">
      <rect id="Rectangle_40" data-name="Rectangle 40" width="57" height="37" transform="translate(718 1258)" fill="#f7ef8a" stroke="#707070" stroke-width="1"/>
    </clipPath>
  </defs>
  <rect id="Rectangle_39" data-name="Rectangle 39" width="200" height="2" rx="1" transform="translate(273 18)" fill="#f7ef8a"/>
  <g id="Mask_Group_18" data-name="Mask Group 18" transform="translate(-510 -1258)" clip-path="url(#clip-path)">
    <g id="flower-with-curved-petals" transform="translate(728 1258)">
      <g id="Group_8" data-name="Group 8">
        <path id="Path_24" data-name="Path 24" d="M36.861,10.958a3.073,3.073,0,0,1-2.48,1.571,4.271,4.271,0,0,1-2.79-1.326,5.548,5.548,0,0,0-3.758-1.466C29.164,4.8,26.15.184,26.15.184s1.106,3.654-3.554,3.9a5.586,5.586,0,0,0-3.941,1.871,5.583,5.583,0,0,0-3.893-1.969C10.111,3.624,11.308,0,11.308,0S8.179,4.536,9.388,9.508H9.3a5.54,5.54,0,0,0-3.7,1.372,4.34,4.34,0,0,1-2.758,1.258A3.057,3.057,0,0,1,.332,10.5s.934,5.1,4.974,7.831C1.2,20.97.139,26.042.139,26.042a3.074,3.074,0,0,1,2.48-1.571A4.273,4.273,0,0,1,5.409,25.8a5.547,5.547,0,0,0,3.758,1.466c-1.332,4.94,1.682,9.553,1.682,9.553s-1.105-3.653,3.554-3.9a5.587,5.587,0,0,0,3.941-1.871,5.58,5.58,0,0,0,3.893,1.968C26.888,33.375,25.692,37,25.692,37s3.129-4.537,1.919-9.508H27.7a5.538,5.538,0,0,0,3.7-1.372,4.339,4.339,0,0,1,2.758-1.258,3.056,3.056,0,0,1,2.5,1.633s-.933-5.1-4.974-7.832C35.8,16.03,36.861,10.958,36.861,10.958ZM31.038,17.64l-1.553,1,1.527,1.034a10.392,10.392,0,0,1,3.353,3.982c-.066,0-.133-.006-.2-.006A5.549,5.549,0,0,0,30.615,25.2a4.309,4.309,0,0,1-2.911,1.08h-.074l-1.57-.023.371,1.526a10.236,10.236,0,0,1-.356,5.58A5.382,5.382,0,0,0,22.332,31.8a4.345,4.345,0,0,1-3.07-1.554l-.894-1.027-.92,1A4.342,4.342,0,0,1,14.339,31.7a5.38,5.38,0,0,0-3.786,1.469,10.215,10.215,0,0,1-.212-5.592l.409-1.517-1.571-.017a4.315,4.315,0,0,1-2.957-1.154,5.479,5.479,0,0,0-3.6-1.639l-.107,0a10.4,10.4,0,0,1,3.451-3.9l1.553-1L5.988,17.329a10.4,10.4,0,0,1-3.353-3.982c.066,0,.133.006.2.006A5.547,5.547,0,0,0,6.385,11.8a4.308,4.308,0,0,1,2.91-1.08H9.37l1.571.023L10.57,9.221a10.225,10.225,0,0,1,.356-5.58A5.382,5.382,0,0,0,14.669,5.2a4.346,4.346,0,0,1,3.07,1.554l.895,1.027.92-1A4.345,4.345,0,0,1,22.661,5.3a5.385,5.385,0,0,0,3.78-1.464,10.223,10.223,0,0,1,.217,5.586l-.408,1.517,1.571.016a4.313,4.313,0,0,1,2.957,1.154,5.479,5.479,0,0,0,3.6,1.639l.114,0A10.4,10.4,0,0,1,31.038,17.64Z" fill="#f7ef8a"/>
        <path id="Path_25" data-name="Path 25" d="M28.326,14.464s-.963,1.8-2.82.131a2.968,2.968,0,0,0-2.011-.785,7.027,7.027,0,0,0-.9-5.112s.592,1.955-1.9,2.087a2.987,2.987,0,0,0-2.109,1A2.987,2.987,0,0,0,16.5,10.733C14.011,10.54,14.651,8.6,14.651,8.6a7.025,7.025,0,0,0-1.027,5.089,2.969,2.969,0,0,0-2.031.734c-1.9,1.623-2.816-.2-2.816-.2a7.117,7.117,0,0,0,2.662,4.191,7.115,7.115,0,0,0-2.765,4.124s.964-1.8,2.821-.131a2.972,2.972,0,0,0,2.011.784,7.025,7.025,0,0,0,.9,5.112s-.592-1.955,1.9-2.087a2.984,2.984,0,0,0,2.109-1A2.991,2.991,0,0,0,20.5,26.268c2.49.193,1.849,2.133,1.849,2.133a7.024,7.024,0,0,0,1.027-5.089,2.966,2.966,0,0,0,2.03-.734c1.9-1.623,2.816.2,2.816.2a7.115,7.115,0,0,0-2.662-4.191A7.115,7.115,0,0,0,28.326,14.464Zm-5.46,6-1.043.417-.011,1.063-1.132-.012-.423.986-1.032-.443-.76.744-.7-.716-.93.373-.4-.988-1.122-.011.011-1.072-1.041-.447.419-.977-.786-.8.859-.842-.446-1.116,1.042-.417.011-1.063,1.133.012.422-.986,1.032.443.759-.744.7.716.931-.372.395.988,1.122.012-.011,1.072,1.041.446-.419.977.786.8-.859.842Z" fill="#f7ef8a"/>
        <path id="Path_26" data-name="Path 26" d="M20.65,18.479l.5-.486-.675-.29.277-.647L20,17.048l.007-.7-.682.273-.213-.533-.41.4-.514-.525-.274.639-.684-.293-.007.7-.734-.007.258.646-.812.325.612.624-.5.487.675.29-.277.647.744.007-.007.7.682-.272.213.532.41-.4.514.525.274-.639.684.293.007-.7.735.008-.259-.645.812-.325Z" fill="#f7ef8a"/>
      </g>
    </g>
  </g>
  <rect id="Rectangle_41" data-name="Rectangle 41" width="200" height="2" rx="1" transform="translate(0 20)" fill="#f7ef8a"/>
</svg>
